<?xml version="1.0" encoding="UTF-8" standalone="no"?>
<svg
   xmlns:dc="http://purl.org/dc/elements/1.1/"
   xmlns:cc="http://creativecommons.org/ns#"
   xmlns:rdf="http://www.w3.org/1999/02/22-rdf-syntax-ns#"
   xmlns:svg="http://www.w3.org/2000/svg"
   xmlns="http://www.w3.org/2000/svg"
   xmlns:sodipodi="http://sodipodi.sourceforge.net/DTD/sodipodi-0.dtd"
   xmlns:inkscape="http://www.inkscape.org/namespaces/inkscape"
   class="svglite"
   width="1008.00pt"
   height="360.00pt"
   viewBox="0 0 1008.00 360.00"
   version="1.1"
   id="svg259"
   sodipodi:docname="Asymptotes Across Blocks Together.svg"
   inkscape:version="0.92.4 (5da689c313, 2019-01-14)">
  <metadata
     id="metadata263">
    <rdf:RDF>
      <cc:Work
         rdf:about="">
        <dc:format>image/svg+xml</dc:format>
        <dc:type
           rdf:resource="http://purl.org/dc/dcmitype/StillImage" />
        <dc:title></dc:title>
      </cc:Work>
    </rdf:RDF>
  </metadata>
  <sodipodi:namedview
     pagecolor="#ffffff"
     bordercolor="#666666"
     borderopacity="1"
     objecttolerance="10"
     gridtolerance="10"
     guidetolerance="10"
     inkscape:pageopacity="0"
     inkscape:pageshadow="2"
     inkscape:window-width="1920"
     inkscape:window-height="1017"
     id="namedview261"
     showgrid="false"
     inkscape:zoom="0.89583333"
     inkscape:cx="704.37184"
     inkscape:cy="77.243694"
     inkscape:window-x="-8"
     inkscape:window-y="-8"
     inkscape:window-maximized="1"
     inkscape:current-layer="svg259" />
  <defs
     id="defs4">
    <style
       type="text/css"
       id="style2"><![CDATA[
    .svglite line, .svglite polyline, .svglite polygon, .svglite path, .svglite rect, .svglite circle {
      fill: none;
      stroke: #000000;
      stroke-linecap: round;
      stroke-linejoin: round;
      stroke-miterlimit: 10.00;
    }
    .svglite text {
      white-space: pre;
    }
  ]]></style>
  </defs>
  <defs
     id="defs11">
    <clipPath
       id="cpMC4wMHwxMDA4LjAwfDAuMDB8MzYwLjAw">
      <rect
         x="0.00"
         y="0.00"
         width="1008.00"
         height="360.00"
         id="rect8" />
    </clipPath>
  </defs>
  <g
     clip-path="url(#cpMC4wMHwxMDA4LjAwfDAuMDB8MzYwLjAw)"
     id="g13" />
  <defs
     id="defs18">
    <clipPath
       id="cpNTkuMDR8NDczLjc2fDU5LjA0fDI4Ni41Ng==">
      <rect
         x="59.04"
         y="59.04"
         width="414.72"
         height="227.52"
         id="rect15" />
    </clipPath>
  </defs>
  <g
     clip-path="url(#cpNTkuMDR8NDczLjc2fDU5LjA0fDI4Ni41Ng==)"
     id="g22"
     inkscape:export-xdpi="96"
     inkscape:export-ydpi="96">
    <polyline
       points="93.60,255.23 112.80,136.44 132.00,225.20 151.20,232.21 170.40,252.39 189.60,239.03 208.80,256.90 228.00,249.75 247.20,254.76 266.40,222.01 285.60,245.47 304.80,231.12 324.00,221.11 343.20,183.60 362.40,270.56 381.60,245.50 400.80,240.87 420.00,266.67 439.20,242.81 458.40,243.55 "
       style="stroke-width: 0.75; stroke: #FF0000;"
       id="polyline20" />
  </g>
  <defs
     id="defs27">
    <clipPath
       id="cpMC4wMHw1MDQuMDB8MC4wMHwzNjAuMDA=">
      <rect
         x="0.00"
         y="0.00"
         width="504.00"
         height="360.00"
         id="rect24" />
    </clipPath>
  </defs>
  <g
     clip-path="url(#cpMC4wMHw1MDQuMDB8MC4wMHwzNjAuMDA=)"
     id="g35"
     inkscape:export-xdpi="96"
     inkscape:export-ydpi="96">
    <text
       x="266.40"
       y="34.67"
       text-anchor="middle"
       style="font-size: 14.40px; font-weight: bold; font-family: &quot;Arial&quot;;"
       textLength="185.86px"
       lengthAdjust="spacingAndGlyphs"
       id="text29">Asymptotes Across Blocks</text>
    <text
       x="266.40"
       y="341.28"
       text-anchor="middle"
       style="font-size: 12.00px; font-family: &quot;Arial&quot;;"
       textLength="113.39px"
       lengthAdjust="spacingAndGlyphs"
       id="text31">Block (12 or 24 trials)</text>
    <text
       transform="translate(12.96,172.80) rotate(-90)"
       text-anchor="middle"
       style="font-size: 12.00px; font-family: &quot;Arial&quot;;"
       textLength="122.09px"
       lengthAdjust="spacingAndGlyphs"
       id="text33">Percent Compensation</text>
  </g>
  <g
     clip-path="url(#cpMC4wMHwxMDA4LjAwfDAuMDB8MzYwLjAw)"
     id="g101"
     inkscape:export-xdpi="96"
     inkscape:export-ydpi="96">
    <line
       x1="93.60"
       y1="286.56"
       x2="458.40"
       y2="286.56"
       style="stroke-width: 0.75;"
       id="line37" />
    <line
       x1="93.60"
       y1="286.56"
       x2="93.60"
       y2="293.76"
       style="stroke-width: 0.75;"
       id="line39" />
    <line
       x1="151.20"
       y1="286.56"
       x2="151.20"
       y2="293.76"
       style="stroke-width: 0.75;"
       id="line41" />
    <line
       x1="228.00"
       y1="286.56"
       x2="228.00"
       y2="293.76"
       style="stroke-width: 0.75;"
       id="line43" />
    <line
       x1="304.80"
       y1="286.56"
       x2="304.80"
       y2="293.76"
       style="stroke-width: 0.75;"
       id="line45" />
    <line
       x1="381.60"
       y1="286.56"
       x2="381.60"
       y2="293.76"
       style="stroke-width: 0.75;"
       id="line47" />
    <line
       x1="458.40"
       y1="286.56"
       x2="458.40"
       y2="293.76"
       style="stroke-width: 0.75;"
       id="line49" />
    <text
       x="93.60"
       y="312.48"
       text-anchor="middle"
       style="font-size: 12.00px; font-family: &quot;Arial&quot;;"
       textLength="6.67px"
       lengthAdjust="spacingAndGlyphs"
       id="text51">1</text>
    <text
       x="151.20"
       y="312.48"
       text-anchor="middle"
       style="font-size: 12.00px; font-family: &quot;Arial&quot;;"
       textLength="6.67px"
       lengthAdjust="spacingAndGlyphs"
       id="text53">4</text>
    <text
       x="228.00"
       y="312.48"
       text-anchor="middle"
       style="font-size: 12.00px; font-family: &quot;Arial&quot;;"
       textLength="6.67px"
       lengthAdjust="spacingAndGlyphs"
       id="text55">8</text>
    <text
       x="304.80"
       y="312.48"
       text-anchor="middle"
       style="font-size: 12.00px; font-family: &quot;Arial&quot;;"
       textLength="13.35px"
       lengthAdjust="spacingAndGlyphs"
       id="text57">12</text>
    <text
       x="381.60"
       y="312.48"
       text-anchor="middle"
       style="font-size: 12.00px; font-family: &quot;Arial&quot;;"
       textLength="13.35px"
       lengthAdjust="spacingAndGlyphs"
       id="text59">16</text>
    <text
       x="458.40"
       y="312.48"
       text-anchor="middle"
       style="font-size: 12.00px; font-family: &quot;Arial&quot;;"
       textLength="13.35px"
       lengthAdjust="spacingAndGlyphs"
       id="text61">20</text>
    <line
       x1="59.04"
       y1="278.13"
       x2="59.04"
       y2="67.47"
       style="stroke-width: 0.75;"
       id="line63" />
    <line
       x1="59.04"
       y1="278.13"
       x2="51.84"
       y2="278.13"
       style="stroke-width: 0.75;"
       id="line65" />
    <line
       x1="59.04"
       y1="251.80"
       x2="51.84"
       y2="251.80"
       style="stroke-width: 0.75;"
       id="line67" />
    <line
       x1="59.04"
       y1="225.47"
       x2="51.84"
       y2="225.47"
       style="stroke-width: 0.75;"
       id="line69" />
    <line
       x1="59.04"
       y1="199.13"
       x2="51.84"
       y2="199.13"
       style="stroke-width: 0.75;"
       id="line71" />
    <line
       x1="59.04"
       y1="172.80"
       x2="51.84"
       y2="172.80"
       style="stroke-width: 0.75;"
       id="line73" />
    <line
       x1="59.04"
       y1="146.47"
       x2="51.84"
       y2="146.47"
       style="stroke-width: 0.75;"
       id="line75" />
    <line
       x1="59.04"
       y1="120.13"
       x2="51.84"
       y2="120.13"
       style="stroke-width: 0.75;"
       id="line77" />
    <line
       x1="59.04"
       y1="93.80"
       x2="51.84"
       y2="93.80"
       style="stroke-width: 0.75;"
       id="line79" />
    <line
       x1="59.04"
       y1="67.47"
       x2="51.84"
       y2="67.47"
       style="stroke-width: 0.75;"
       id="line81" />
    <text
       x="44.64"
       y="282.43"
       text-anchor="end"
       style="font-size: 12.00px; font-family: &quot;Arial&quot;;"
       textLength="6.67px"
       lengthAdjust="spacingAndGlyphs"
       id="text83">0</text>
    <text
       x="44.64"
       y="256.10"
       text-anchor="end"
       style="font-size: 12.00px; font-family: &quot;Arial&quot;;"
       textLength="13.35px"
       lengthAdjust="spacingAndGlyphs"
       id="text85">25</text>
    <text
       x="44.64"
       y="229.77"
       text-anchor="end"
       style="font-size: 12.00px; font-family: &quot;Arial&quot;;"
       textLength="13.35px"
       lengthAdjust="spacingAndGlyphs"
       id="text87">50</text>
    <text
       x="44.64"
       y="203.43"
       text-anchor="end"
       style="font-size: 12.00px; font-family: &quot;Arial&quot;;"
       textLength="13.35px"
       lengthAdjust="spacingAndGlyphs"
       id="text89">75</text>
    <text
       x="44.64"
       y="177.10"
       text-anchor="end"
       style="font-size: 12.00px; font-family: &quot;Arial&quot;;"
       textLength="20.02px"
       lengthAdjust="spacingAndGlyphs"
       id="text91">100</text>
    <text
       x="44.64"
       y="150.77"
       text-anchor="end"
       style="font-size: 12.00px; font-family: &quot;Arial&quot;;"
       textLength="20.02px"
       lengthAdjust="spacingAndGlyphs"
       id="text93">125</text>
    <text
       x="44.64"
       y="124.43"
       text-anchor="end"
       style="font-size: 12.00px; font-family: &quot;Arial&quot;;"
       textLength="20.02px"
       lengthAdjust="spacingAndGlyphs"
       id="text95">150</text>
    <text
       x="44.64"
       y="98.10"
       text-anchor="end"
       style="font-size: 12.00px; font-family: &quot;Arial&quot;;"
       textLength="20.02px"
       lengthAdjust="spacingAndGlyphs"
       id="text97">175</text>
    <text
       x="44.64"
       y="71.77"
       text-anchor="end"
       style="font-size: 12.00px; font-family: &quot;Arial&quot;;"
       textLength="20.02px"
       lengthAdjust="spacingAndGlyphs"
       id="text99">200</text>
  </g>
  <g
     clip-path="url(#cpNTkuMDR8NDczLjc2fDU5LjA0fDI4Ni41Ng==)"
     id="g117"
     inkscape:export-xdpi="96"
     inkscape:export-ydpi="96">
    <polygon
       points="93.60,261.35 112.80,276.39 132.00,243.40 151.20,243.12 170.40,262.43 189.60,244.17 208.80,265.75 228.00,256.85 247.20,261.94 266.40,235.01 285.60,252.08 304.80,263.01 324.00,233.98 343.20,277.65 362.40,278.13 381.60,250.84 400.80,253.50 420.00,274.06 439.20,250.92 458.40,252.19 458.40,235.46 439.20,233.88 420.00,257.62 400.80,227.98 381.60,239.16 362.40,220.45 343.20,81.22 324.00,206.63 304.80,126.75 285.60,239.06 266.40,210.63 247.20,247.16 228.00,243.21 208.80,238.98 189.60,233.91 170.40,241.41 151.20,219.56 132.00,204.46 112.80,26.25 93.60,247.36 "
       style="stroke-width: 0.75; stroke: none; fill: #FF0000; fill-opacity: 0.20;"
       id="polygon103" />
    <polyline
       points="93.60,201.06 112.80,160.80 132.00,197.92 151.20,192.74 170.40,191.19 189.60,203.24 208.80,207.69 228.00,215.26 247.20,205.40 266.40,198.09 285.60,200.13 304.80,191.14 324.00,203.70 343.20,192.35 362.40,214.97 381.60,200.92 400.80,208.07 420.00,212.30 439.20,206.96 458.40,195.51 "
       style="stroke-width: 0.75; stroke: #0000FF;"
       id="polyline105" />
    <polygon
       points="93.60,208.45 112.80,184.04 132.00,210.63 151.20,199.56 170.40,198.87 189.60,207.56 208.80,220.97 228.00,220.46 247.20,217.55 266.40,205.83 285.60,204.47 304.80,209.61 324.00,210.63 343.20,224.92 362.40,227.39 381.60,206.80 400.80,220.11 420.00,223.62 439.20,213.17 458.40,205.44 458.40,185.26 439.20,200.22 420.00,201.04 400.80,195.19 381.60,194.14 362.40,192.31 343.20,57.51 324.00,196.15 304.80,172.67 285.60,195.84 266.40,190.55 247.20,193.50 228.00,210.68 208.80,193.21 189.60,199.39 170.40,183.95 151.20,186.56 132.00,181.89 112.80,136.00 93.60,191.80 "
       style="stroke-width: 0.75; stroke: none; fill: #0000FF; fill-opacity: 0.20;"
       id="polygon107" />
    <line
       x1="142.80"
       y1="81.87"
       x2="164.40"
       y2="81.87"
       style="stroke-width: 0.75; stroke: #FF0000;"
       id="line109" />
    <line
       x1="142.80"
       y1="96.27"
       x2="164.40"
       y2="96.27"
       style="stroke-width: 0.75; stroke: #0000FF;"
       id="line111" />
    <text
       x="175.20"
       y="86.17"
       style="font-size: 12.00px; font-family: &quot;Arial&quot;;"
       textLength="69.39px"
       lengthAdjust="spacingAndGlyphs"
       id="text113">Localizations</text>
    <text
       x="175.20"
       y="100.57"
       style="font-size: 12.00px; font-family: &quot;Arial&quot;;"
       textLength="47.38px"
       lengthAdjust="spacingAndGlyphs"
       id="text115">Reaches</text>
  </g>
  <defs
     id="defs122">
    <clipPath
       id="cpNTYzLjA0fDk3Ny43Nnw1OS4wNHwyODYuNTY=">
      <rect
         x="563.04"
         y="59.04"
         width="414.72"
         height="227.52"
         id="rect119" />
    </clipPath>
  </defs>
  <defs
     id="defs131">
    <clipPath
       id="cpNTA0LjAwfDEwMDguMDB8MC4wMHwzNjAuMDA=">
      <rect
         x="504.00"
         y="0.00"
         width="504.00"
         height="360.00"
         id="rect128" />
    </clipPath>
  </defs>
</svg>
