<?xml version="1.0" encoding="UTF-8" standalone="no"?>
<svg
   class="svglite"
   width="1008.00pt"
   height="576.00pt"
   viewBox="0 0 1008.00 576.00"
   version="1.1"
   id="svg549"
   sodipodi:docname="LR &amp; Asymptotes Across All Blocks Together_1205.svg"
   inkscape:version="1.2 (dc2aedaf03, 2022-05-15)"
   xmlns:inkscape="http://www.inkscape.org/namespaces/inkscape"
   xmlns:sodipodi="http://sodipodi.sourceforge.net/DTD/sodipodi-0.dtd"
   xmlns="http://www.w3.org/2000/svg"
   xmlns:svg="http://www.w3.org/2000/svg">
  <sodipodi:namedview
     id="namedview551"
     pagecolor="#ffffff"
     bordercolor="#000000"
     borderopacity="0.25"
     inkscape:showpageshadow="2"
     inkscape:pageopacity="0.0"
     inkscape:pagecheckerboard="0"
     inkscape:deskcolor="#d1d1d1"
     inkscape:document-units="pt"
     showgrid="false"
     inkscape:zoom="0.69868884"
     inkscape:cx="451.5601"
     inkscape:cy="431.52256"
     inkscape:window-width="1920"
     inkscape:window-height="991"
     inkscape:window-x="-9"
     inkscape:window-y="-9"
     inkscape:window-maximized="1"
     inkscape:current-layer="svg549" />
  <defs
     id="defs4">
    <style
       type="text/css"
       id="style2"><![CDATA[
    .svglite line, .svglite polyline, .svglite polygon, .svglite path, .svglite rect, .svglite circle {
      fill: none;
      stroke: #000000;
      stroke-linecap: round;
      stroke-linejoin: round;
      stroke-miterlimit: 10.00;
    }
    .svglite text {
      white-space: pre;
    }
  ]]></style>
    <clipPath
       clipPathUnits="userSpaceOnUse"
       id="clipPath904">
      <rect
         x="59.040001"
         y="59.040001"
         width="414.72003"
         height="443.51999"
         id="rect906"
         style="stroke-width:0.999998" />
    </clipPath>
    <clipPath
       clipPathUnits="userSpaceOnUse"
       id="clipPath908">
      <rect
         x="59.040001"
         y="59.040001"
         width="414.72003"
         height="443.51999"
         id="rect910"
         style="stroke-width:0.999998" />
    </clipPath>
    <clipPath
       clipPathUnits="userSpaceOnUse"
       id="clipPath912">
      <rect
         x="59.040001"
         y="59.040001"
         width="414.72003"
         height="443.51999"
         id="rect914"
         style="stroke-width:0.999998" />
    </clipPath>
  </defs>
  <defs
     id="defs11">
    <clipPath
       id="cpMC4wMHwxMDA4LjAwfDAuMDB8NTc2LjAw">
      <rect
         x="0.00"
         y="0.00"
         width="1008.00"
         height="576.00"
         id="rect8" />
    </clipPath>
  </defs>
  <g
     clip-path="url(#cpMC4wMHwxMDA4LjAwfDAuMDB8NTc2LjAw)"
     id="g13" />
  <defs
     id="defs18" />
  <circle
     cx="74.400002"
     cy="426.60999"
     r="2.7"
     style="stroke:#ff0000;stroke-width:0.75"
     id="circle20"
     inkscape:export-filename="Regression Plots.png"
     inkscape:export-xdpi="96"
     inkscape:export-ydpi="96" />
  <circle
     cx="85.690002"
     cy="117.85"
     r="2.7"
     style="stroke:#b3b3b3;stroke-width:0.75;fill:#ff0000"
     id="circle22" />
  <circle
     cx="108.28"
     cy="348.56"
     r="2.7"
     style="stroke:#ff0000;stroke-width:0.75"
     id="circle24" />
  <circle
     cx="119.58"
     cy="366.76001"
     r="2.7"
     style="stroke:#ff0000;stroke-width:0.75"
     id="circle26" />
  <circle
     cx="142.16"
     cy="419.22"
     r="2.7"
     style="stroke:#ff0000;stroke-width:0.75"
     id="circle28" />
  <circle
     cx="164.75"
     cy="384.5"
     r="2.7"
     style="stroke:#ff0000;stroke-width:0.75"
     id="circle30" />
  <circle
     cx="198.64"
     cy="430.95001"
     r="2.7"
     style="stroke:#ff0000;stroke-width:0.75"
     id="circle32" />
  <circle
     cx="221.22"
     cy="412.35001"
     r="2.7"
     style="stroke:#ff0000;stroke-width:0.75"
     id="circle34" />
  <circle
     cx="255.11"
     cy="425.38"
     r="2.7"
     style="stroke:#ff0000;stroke-width:0.75"
     id="circle36" />
  <circle
     cx="266.39999"
     cy="340.25"
     r="2.7"
     style="stroke:#ff0000;stroke-width:0.75"
     id="circle38" />
  <circle
     cx="288.98999"
     cy="401.23999"
     r="2.7"
     style="stroke:#ff0000;stroke-width:0.75"
     id="circle40" />
  <circle
     cx="311.57999"
     cy="363.92999"
     r="2.7"
     style="stroke:#ff0000;stroke-width:0.75"
     id="circle42" />
  <circle
     cx="322.87"
     cy="337.92999"
     r="2.7"
     style="stroke:#ff0000;stroke-width:0.75"
     id="circle44" />
  <circle
     cx="345.45999"
     cy="240.44"
     r="2.7"
     style="stroke:#b3b3b3;stroke-width:0.75;fill:#ff0000"
     id="circle46" />
  <circle
     cx="356.75"
     cy="466.44"
     r="2.7"
     style="stroke:#ff0000;stroke-width:0.75"
     id="circle48" />
  <circle
     cx="368.04999"
     cy="401.29999"
     r="2.7"
     style="stroke:#ff0000;stroke-width:0.75"
     id="circle50" />
  <circle
     cx="401.92999"
     cy="389.29001"
     r="2.7"
     style="stroke:#ff0000;stroke-width:0.75"
     id="circle52" />
  <circle
     cx="413.22"
     cy="456.34"
     r="2.7"
     style="stroke:#ff0000;stroke-width:0.75"
     id="circle54" />
  <circle
     cx="424.51999"
     cy="394.32001"
     r="2.7"
     style="stroke:#ff0000;stroke-width:0.75"
     id="circle56" />
  <circle
     cx="435.81"
     cy="396.23999"
     r="2.7"
     style="stroke:#ff0000;stroke-width:0.75"
     id="circle58" />
  <defs
     id="defs65">
    <clipPath
       id="cpMC4wMHw1MDQuMDB8MC4wMHw1NzYuMDA=">
      <rect
         x="0.00"
         y="0.00"
         width="504.00"
         height="576.00"
         id="rect62" />
    </clipPath>
  </defs>
  <g
     clip-path="url(#cpMC4wMHw1MDQuMDB8MC4wMHw1NzYuMDA=)"
     id="g73">
    <text
       x="266.40"
       y="35.96"
       text-anchor="middle"
       style="font-size: 18.00px; font-weight: bold; font-family: &quot;Arial&quot;;"
       textLength="232.39px"
       lengthAdjust="spacingAndGlyphs"
       id="text67">Asymptotes Across Blocks</text>
    <text
       x="266.40"
       y="557.28"
       text-anchor="middle"
       style="font-size: 20.40px; font-family: &quot;Arial&quot;;"
       textLength="192.64px"
       lengthAdjust="spacingAndGlyphs"
       id="text69">Block (12 or 24 trials)</text>
    <text
       transform="translate(12.96,280.80) rotate(-90)"
       text-anchor="middle"
       style="font-size: 20.40px; font-family: &quot;Arial&quot;;"
       textLength="207.42px"
       lengthAdjust="spacingAndGlyphs"
       id="text71">Percent Compensation</text>
  </g>
  <line
     x1="74.400002"
     y1="502.56"
     x2="469.69"
     y2="502.56"
     style="stroke-width:0.75"
     id="line75" />
  <line
     x1="74.400002"
     y1="502.56"
     x2="74.400002"
     y2="509.76001"
     style="stroke-width:0.75"
     id="line77" />
  <line
     x1="108.28"
     y1="502.56"
     x2="108.28"
     y2="509.76001"
     style="stroke-width:0.75"
     id="line79" />
  <line
     x1="153.46001"
     y1="502.56"
     x2="153.46001"
     y2="509.76001"
     style="stroke-width:0.75"
     id="line81" />
  <line
     x1="198.64"
     y1="502.56"
     x2="198.64"
     y2="509.76001"
     style="stroke-width:0.75"
     id="line83" />
  <line
     x1="243.81"
     y1="502.56"
     x2="243.81"
     y2="509.76001"
     style="stroke-width:0.75"
     id="line85" />
  <line
     x1="288.98999"
     y1="502.56"
     x2="288.98999"
     y2="509.76001"
     style="stroke-width:0.75"
     id="line87" />
  <line
     x1="334.16"
     y1="502.56"
     x2="334.16"
     y2="509.76001"
     style="stroke-width:0.75"
     id="line89" />
  <line
     x1="379.34"
     y1="502.56"
     x2="379.34"
     y2="509.76001"
     style="stroke-width:0.75"
     id="line91" />
  <line
     x1="424.51999"
     y1="502.56"
     x2="424.51999"
     y2="509.76001"
     style="stroke-width:0.75"
     id="line93" />
  <line
     x1="469.69"
     y1="502.56"
     x2="469.69"
     y2="509.76001"
     style="stroke-width:0.75"
     id="line95" />
  <text
     x="74.400002"
     y="528.47998"
     text-anchor="middle"
     style="font-size:18px;font-family:Arial"
     textLength="10.01"
     lengthAdjust="spacingAndGlyphs"
     id="text97">1</text>
  <text
     x="108.28"
     y="528.47998"
     text-anchor="middle"
     style="font-size:18px;font-family:Arial"
     textLength="10.01"
     lengthAdjust="spacingAndGlyphs"
     id="text99">4</text>
  <text
     x="153.46001"
     y="528.47998"
     text-anchor="middle"
     style="font-size:18px;font-family:Arial"
     textLength="10.01"
     lengthAdjust="spacingAndGlyphs"
     id="text101">8</text>
  <text
     x="198.64"
     y="528.47998"
     text-anchor="middle"
     style="font-size:18px;font-family:Arial"
     textLength="20.02"
     lengthAdjust="spacingAndGlyphs"
     id="text103">12</text>
  <text
     x="243.81"
     y="528.47998"
     text-anchor="middle"
     style="font-size:18px;font-family:Arial"
     textLength="20.02"
     lengthAdjust="spacingAndGlyphs"
     id="text105">16</text>
  <text
     x="288.98999"
     y="528.47998"
     text-anchor="middle"
     style="font-size:18px;font-family:Arial"
     textLength="20.02"
     lengthAdjust="spacingAndGlyphs"
     id="text107">20</text>
  <text
     x="334.16"
     y="528.47998"
     text-anchor="middle"
     style="font-size:18px;font-family:Arial"
     textLength="20.02"
     lengthAdjust="spacingAndGlyphs"
     id="text109">24</text>
  <text
     x="379.34"
     y="528.47998"
     text-anchor="middle"
     style="font-size:18px;font-family:Arial"
     textLength="20.02"
     lengthAdjust="spacingAndGlyphs"
     id="text111">28</text>
  <text
     x="424.51999"
     y="528.47998"
     text-anchor="middle"
     style="font-size:18px;font-family:Arial"
     textLength="20.02"
     lengthAdjust="spacingAndGlyphs"
     id="text113">32</text>
  <text
     x="469.69"
     y="528.47998"
     text-anchor="middle"
     style="font-size:18px;font-family:Arial"
     textLength="20.02"
     lengthAdjust="spacingAndGlyphs"
     id="text115">36</text>
  <line
     x1="59.040001"
     y1="486.14413"
     x2="59.040001"
     y2="75.15538"
     style="stroke-width:0.735727"
     id="line117" />
  <line
     x1="59.040001"
     y1="486.13"
     x2="51.84"
     y2="486.13"
     style="stroke-width:0.75"
     id="line119" />
  <line
     x1="59.040001"
     y1="417.69"
     x2="51.84"
     y2="417.69"
     style="stroke-width:0.75"
     id="line121" />
  <line
     x1="59.040001"
     y1="349.23999"
     x2="51.84"
     y2="349.23999"
     style="stroke-width:0.75"
     id="line123" />
  <line
     x1="59.040001"
     y1="280.79999"
     x2="51.84"
     y2="280.79999"
     style="stroke-width:0.75"
     id="line125" />
  <line
     x1="59.040001"
     y1="212.36"
     x2="51.84"
     y2="212.36"
     style="stroke-width:0.75"
     id="line127" />
  <line
     x1="59.040001"
     y1="143.91"
     x2="51.84"
     y2="143.91"
     style="stroke-width:0.75"
     id="line129" />
  <line
     x1="59.040001"
     y1="75.470001"
     x2="51.84"
     y2="75.470001"
     style="stroke-width:0.75"
     id="line131" />
  <text
     x="44.639999"
     y="492.57999"
     text-anchor="end"
     style="font-size:18px;font-family:Arial"
     textLength="10.01"
     lengthAdjust="spacingAndGlyphs"
     id="text133">0</text>
  <text
     x="44.639999"
     y="424.13"
     text-anchor="end"
     style="font-size:18px;font-family:Arial"
     textLength="20.02"
     lengthAdjust="spacingAndGlyphs"
     id="text135">25</text>
  <text
     x="44.639999"
     y="355.69"
     text-anchor="end"
     style="font-size:18px;font-family:Arial"
     textLength="20.02"
     lengthAdjust="spacingAndGlyphs"
     id="text137">50</text>
  <text
     x="44.639999"
     y="287.23999"
     text-anchor="end"
     style="font-size:18px;font-family:Arial"
     textLength="20.02"
     lengthAdjust="spacingAndGlyphs"
     id="text139">75</text>
  <text
     x="44.639999"
     y="218.8"
     text-anchor="end"
     style="font-size:18px;font-family:Arial"
     textLength="30.02"
     lengthAdjust="spacingAndGlyphs"
     id="text141">100</text>
  <text
     x="44.639999"
     y="150.36"
     text-anchor="end"
     style="font-size:18px;font-family:Arial"
     textLength="30.02"
     lengthAdjust="spacingAndGlyphs"
     id="text143">125</text>
  <text
     x="44.639999"
     y="81.910004"
     text-anchor="end"
     style="font-size:18px;font-family:Arial"
     textLength="30.02"
     lengthAdjust="spacingAndGlyphs"
     id="text145">150</text>
  <polygon
     points="76.09,406.14 73.27,406.14 73.27,442.51 76.09,442.51 "
     style="fill:#ff0000;fill-opacity:0.2;stroke:none;stroke-width:0.75"
     id="polygon149" />
  <polygon
     points="87.39,-168.54 84.56,-168.54 84.56,481.61 87.39,481.61 "
     style="fill:#b3b3b3;fill-opacity:0.2;stroke:none;stroke-width:0.75"
     id="polygon151"
     clip-path="url(#clipPath912)" />
  <polygon
     points="109.98,294.64 107.15,294.64 107.15,395.86 109.98,395.86 "
     style="fill:#ff0000;fill-opacity:0.2;stroke:none;stroke-width:0.75"
     id="polygon153" />
  <polygon
     points="121.27,333.9 118.45,333.9 118.45,395.13 121.27,395.13 "
     style="fill:#ff0000;fill-opacity:0.2;stroke:none;stroke-width:0.75"
     id="polygon155" />
  <polygon
     points="143.86,390.68 141.04,390.68 141.04,445.31 143.86,445.31 "
     style="fill:#ff0000;fill-opacity:0.2;stroke:none;stroke-width:0.75"
     id="polygon157" />
  <polygon
     points="166.45,371.18 163.62,371.18 163.62,397.85 166.45,397.85 "
     style="fill:#ff0000;fill-opacity:0.2;stroke:none;stroke-width:0.75"
     id="polygon159" />
  <polygon
     points="200.33,384.36 197.51,384.36 197.51,453.94 200.33,453.94 "
     style="fill:#ff0000;fill-opacity:0.2;stroke:none;stroke-width:0.75"
     id="polygon161" />
  <polygon
     points="222.92,395.37 220.09,395.37 220.09,430.82 222.92,430.82 "
     style="fill:#ff0000;fill-opacity:0.2;stroke:none;stroke-width:0.75"
     id="polygon163" />
  <polygon
     points="256.8,405.62 253.98,405.62 253.98,444.03 256.8,444.03 "
     style="fill:#ff0000;fill-opacity:0.2;stroke:none;stroke-width:0.75"
     id="polygon165" />
  <polygon
     points="268.09,310.67 265.27,310.67 265.27,374.06 268.09,374.06 "
     style="fill:#ff0000;fill-opacity:0.2;stroke:none;stroke-width:0.75"
     id="polygon167" />
  <polygon
     points="290.68,384.58 287.86,384.58 287.86,418.41 290.68,418.41 "
     style="fill:#ff0000;fill-opacity:0.2;stroke:none;stroke-width:0.75"
     id="polygon169" />
  <polygon
     points="313.27,92.67 310.45,92.67 310.45,446.84 313.27,446.84 "
     style="fill:#ff0000;fill-opacity:0.2;stroke:none;stroke-width:0.75"
     id="polygon171" />
  <polygon
     points="324.56,300.28 321.74,300.28 321.74,371.37 324.56,371.37 "
     style="fill:#ff0000;fill-opacity:0.2;stroke:none;stroke-width:0.75"
     id="polygon173" />
  <polygon
     points="347.15,-25.67 344.33,-25.67 344.33,484.87 347.15,484.87 "
     style="fill:#b3b3b3;fill-opacity:0.2;stroke:none;stroke-width:0.75"
     id="polygon175"
     clip-path="url(#clipPath908)" />
  <polygon
     points="358.45,336.2 355.62,336.2 355.62,486.13 358.45,486.13 "
     style="fill:#ff0000;fill-opacity:0.2;stroke:none;stroke-width:0.75"
     id="polygon177" />
  <polygon
     points="369.74,384.83 366.92,384.83 366.92,415.2 369.74,415.2 "
     style="fill:#ff0000;fill-opacity:0.2;stroke:none;stroke-width:0.75"
     id="polygon179" />
  <polygon
     points="403.62,355.78 400.8,355.78 400.8,422.1 403.62,422.1 "
     style="fill:#ff0000;fill-opacity:0.2;stroke:none;stroke-width:0.75"
     id="polygon181" />
  <polygon
     points="414.92,432.8 412.09,432.8 412.09,475.56 414.92,475.56 "
     style="fill:#ff0000;fill-opacity:0.2;stroke:none;stroke-width:0.75"
     id="polygon183" />
  <polygon
     points="426.21,371.11 423.39,371.11 423.39,415.39 426.21,415.39 "
     style="fill:#ff0000;fill-opacity:0.2;stroke:none;stroke-width:0.75"
     id="polygon185" />
  <polygon
     points="437.51,375.23 434.68,375.23 434.68,418.71 437.51,418.71 "
     style="fill:#ff0000;fill-opacity:0.2;stroke:none;stroke-width:0.75"
     id="polygon187" />
  <line
     x1="59.040001"
     y1="388.89999"
     x2="473.76001"
     y2="407.73999"
     style="stroke:#ff0000;stroke-width:0.75;stroke-dasharray:4, 4"
     id="line189" />
  <circle
     cx="74.400002"
     cy="285.82001"
     r="2.7"
     style="stroke:#0000ff;stroke-width:0.75"
     id="circle191" />
  <circle
     cx="85.690002"
     cy="181.17"
     r="2.7"
     style="stroke:#b3b3b3;stroke-width:0.75;fill:#0000ff"
     id="circle193" />
  <circle
     cx="108.28"
     cy="277.64001"
     r="2.7"
     style="stroke:#0000ff;stroke-width:0.75"
     id="circle195" />
  <circle
     cx="119.58"
     cy="264.17999"
     r="2.7"
     style="stroke:#0000ff;stroke-width:0.75"
     id="circle197" />
  <circle
     cx="142.16"
     cy="260.14001"
     r="2.7"
     style="stroke:#0000ff;stroke-width:0.75"
     id="circle199" />
  <circle
     cx="164.75"
     cy="291.48001"
     r="2.7"
     style="stroke:#0000ff;stroke-width:0.75"
     id="circle201" />
  <circle
     cx="198.64"
     cy="303.04001"
     r="2.7"
     style="stroke:#0000ff;stroke-width:0.75"
     id="circle203" />
  <circle
     cx="221.22"
     cy="322.70999"
     r="2.7"
     style="stroke:#0000ff;stroke-width:0.75"
     id="circle205" />
  <circle
     cx="255.11"
     cy="297.07999"
     r="2.7"
     style="stroke:#0000ff;stroke-width:0.75"
     id="circle207" />
  <circle
     cx="266.39999"
     cy="278.09"
     r="2.7"
     style="stroke:#0000ff;stroke-width:0.75"
     id="circle209" />
  <circle
     cx="288.98999"
     cy="283.38"
     r="2.7"
     style="stroke:#0000ff;stroke-width:0.75"
     id="circle211" />
  <circle
     cx="311.57999"
     cy="260.04001"
     r="2.7"
     style="stroke:#0000ff;stroke-width:0.75"
     id="circle213" />
  <circle
     cx="322.87"
     cy="292.67001"
     r="2.7"
     style="stroke:#0000ff;stroke-width:0.75"
     id="circle215" />
  <circle
     cx="345.45999"
     cy="263.16"
     r="2.7"
     style="stroke:#b3b3b3;stroke-width:0.75;fill:#0000ff"
     id="circle217" />
  <circle
     cx="356.75"
     cy="321.95001"
     r="2.7"
     style="stroke:#0000ff;stroke-width:0.75"
     id="circle219" />
  <circle
     cx="368.04999"
     cy="285.45001"
     r="2.7"
     style="stroke:#0000ff;stroke-width:0.75"
     id="circle221" />
  <circle
     cx="401.92999"
     cy="304.04001"
     r="2.7"
     style="stroke:#0000ff;stroke-width:0.75"
     id="circle223" />
  <circle
     cx="413.22"
     cy="315.01999"
     r="2.7"
     style="stroke:#0000ff;stroke-width:0.75"
     id="circle225" />
  <circle
     cx="424.51999"
     cy="301.14999"
     r="2.7"
     style="stroke:#0000ff;stroke-width:0.75"
     id="circle227" />
  <circle
     cx="435.81"
     cy="271.39001"
     r="2.7"
     style="stroke:#0000ff;stroke-width:0.75"
     id="circle229" />
  <polygon
     points="76.09,261.75 73.27,261.75 73.27,305.02 76.09,305.02 "
     style="fill:#0000ff;fill-opacity:0.2;stroke:none;stroke-width:0.75"
     id="polygon231" />
  <polygon
     points="87.39,116.7 84.56,116.7 84.56,241.57 87.39,241.57 "
     style="fill:#b3b3b3;fill-opacity:0.2;stroke:none;stroke-width:0.75"
     id="polygon233" />
  <polygon
     points="109.98,235.99 107.15,235.99 107.15,310.67 109.98,310.67 "
     style="fill:#0000ff;fill-opacity:0.2;stroke:none;stroke-width:0.75"
     id="polygon235" />
  <polygon
     points="121.27,248.13 118.45,248.13 118.45,281.9 121.27,281.9 "
     style="fill:#0000ff;fill-opacity:0.2;stroke:none;stroke-width:0.75"
     id="polygon237" />
  <polygon
     points="143.86,241.35 141.04,241.35 141.04,280.11 143.86,280.11 "
     style="fill:#0000ff;fill-opacity:0.2;stroke:none;stroke-width:0.75"
     id="polygon239" />
  <polygon
     points="166.45,281.47 163.62,281.47 163.62,302.71 166.45,302.71 "
     style="fill:#0000ff;fill-opacity:0.2;stroke:none;stroke-width:0.75"
     id="polygon241" />
  <polygon
     points="200.33,265.4 197.51,265.4 197.51,337.57 200.33,337.57 "
     style="fill:#0000ff;fill-opacity:0.2;stroke:none;stroke-width:0.75"
     id="polygon243" />
  <polygon
     points="222.92,310.8 220.09,310.8 220.09,336.24 222.92,336.24 "
     style="fill:#0000ff;fill-opacity:0.2;stroke:none;stroke-width:0.75"
     id="polygon245" />
  <polygon
     points="256.8,266.15 253.98,266.15 253.98,328.67 256.8,328.67 "
     style="fill:#0000ff;fill-opacity:0.2;stroke:none;stroke-width:0.75"
     id="polygon247" />
  <polygon
     points="268.09,258.48 265.27,258.48 265.27,298.21 268.09,298.21 "
     style="fill:#0000ff;fill-opacity:0.2;stroke:none;stroke-width:0.75"
     id="polygon249" />
  <polygon
     points="290.68,272.24 287.86,272.24 287.86,294.66 290.68,294.66 "
     style="fill:#0000ff;fill-opacity:0.2;stroke:none;stroke-width:0.75"
     id="polygon251" />
  <polygon
     points="313.27,212.01 310.45,212.01 310.45,308.02 313.27,308.02 "
     style="fill:#0000ff;fill-opacity:0.2;stroke:none;stroke-width:0.75"
     id="polygon253" />
  <polygon
     points="324.56,273.04 321.74,273.04 321.74,310.68 324.56,310.68 "
     style="fill:#0000ff;fill-opacity:0.2;stroke:none;stroke-width:0.75"
     id="polygon255" />
  <polygon
     points="347.15,-87.29 344.33,-87.29 344.33,347.82 347.15,347.82 "
     style="fill:#b3b3b3;fill-opacity:0.2;stroke:none;stroke-width:0.75"
     id="polygon257"
     clip-path="url(#clipPath904)" />
  <polygon
     points="358.45,263.08 355.62,263.08 355.62,354.23 358.45,354.23 "
     style="fill:#0000ff;fill-opacity:0.2;stroke:none;stroke-width:0.75"
     id="polygon259" />
  <polygon
     points="369.74,267.81 366.92,267.81 366.92,300.72 369.74,300.72 "
     style="fill:#0000ff;fill-opacity:0.2;stroke:none;stroke-width:0.75"
     id="polygon261" />
  <polygon
     points="403.62,270.56 400.8,270.56 400.8,335.32 403.62,335.32 "
     style="fill:#0000ff;fill-opacity:0.2;stroke:none;stroke-width:0.75"
     id="polygon263" />
  <polygon
     points="414.92,285.77 412.09,285.77 412.09,344.44 414.92,344.44 "
     style="fill:#0000ff;fill-opacity:0.2;stroke:none;stroke-width:0.75"
     id="polygon265" />
  <polygon
     points="426.21,283.63 423.39,283.63 423.39,317.28 426.21,317.28 "
     style="fill:#0000ff;fill-opacity:0.2;stroke:none;stroke-width:0.75"
     id="polygon267" />
  <polygon
     points="437.51,244.75 434.68,244.75 434.68,297.19 437.51,297.19 "
     style="fill:#0000ff;fill-opacity:0.2;stroke:none;stroke-width:0.75"
     id="polygon269" />
  <line
     x1="59.040001"
     y1="278.38"
     x2="473.76001"
     y2="302.25"
     style="stroke:#0000ff;stroke-width:0.75;stroke-dasharray:4, 4"
     id="line271" />
  <line
     x1="110.49"
     y1="93.470001"
     x2="137.49001"
     y2="93.470001"
     style="stroke:#ff0000;stroke-width:0.75"
     id="line273" />
  <line
     x1="110.49"
     y1="111.47"
     x2="137.49001"
     y2="111.47"
     style="stroke:#0000ff;stroke-width:0.75"
     id="line275" />
  <line
     x1="110.49"
     y1="129.47"
     x2="137.49001"
     y2="129.47"
     style="stroke-width:0.75;stroke-dasharray:4, 4"
     id="line277" />
  <text
     x="150.99001"
     y="98.839996"
     style="font-size:15px;font-family:Arial"
     textLength="146.31"
     lengthAdjust="spacingAndGlyphs"
     id="text279">Localizations, r2 = .04</text>
  <text
     x="150.99001"
     y="116.84"
     style="font-size:15px;font-family:Arial"
     textLength="118.79"
     lengthAdjust="spacingAndGlyphs"
     id="text281">Reaches, r2 = .05</text>
  <text
     x="150.99001"
     y="134.84"
     style="font-size:15px;font-family:Arial"
     textLength="75.849998"
     lengthAdjust="spacingAndGlyphs"
     id="text283">Regression</text>
  <g
     clip-path="url(#cpMC4wMHwxMDA4LjAwfDAuMDB8NTc2LjAw)"
     id="g289">
    <text
       x="59.04"
       y="58.94"
       style="font-size: 24.00px; font-family: &quot;Arial&quot;;"
       textLength="16.01px"
       lengthAdjust="spacingAndGlyphs"
       id="text287">A</text>
  </g>
  <defs
     id="defs294" />
  <circle
     cx="578.40002"
     cy="308.63"
     r="2.7"
     style="stroke:#ff0000;stroke-width:0.75"
     id="circle296" />
  <circle
     cx="589.69"
     cy="477"
     r="2.7"
     style="stroke:#b3b3b3;stroke-width:0.75;fill:#ff0000"
     id="circle298" />
  <circle
     cx="612.28003"
     cy="359.29001"
     r="2.7"
     style="stroke:#ff0000;stroke-width:0.75"
     id="circle300" />
  <circle
     cx="623.58002"
     cy="206.67999"
     r="2.7"
     style="stroke:#ff0000;stroke-width:0.75"
     id="circle302" />
  <circle
     cx="646.15997"
     cy="330.23999"
     r="2.7"
     style="stroke:#ff0000;stroke-width:0.75"
     id="circle304" />
  <circle
     cx="668.75"
     cy="203.77"
     r="2.7"
     style="stroke:#ff0000;stroke-width:0.75"
     id="circle306" />
  <circle
     cx="702.64001"
     cy="140.64"
     r="2.7"
     style="stroke:#ff0000;stroke-width:0.75"
     id="circle308" />
  <circle
     cx="725.21997"
     cy="137.45"
     r="2.7"
     style="stroke:#ff0000;stroke-width:0.75"
     id="circle310" />
  <circle
     cx="759.10999"
     cy="333.59"
     r="2.7"
     style="stroke:#ff0000;stroke-width:0.75"
     id="circle312" />
  <circle
     cx="770.40002"
     cy="228.41"
     r="2.7"
     style="stroke:#ff0000;stroke-width:0.75"
     id="circle314" />
  <circle
     cx="792.98999"
     cy="173.74001"
     r="2.7"
     style="stroke:#ff0000;stroke-width:0.75"
     id="circle316" />
  <circle
     cx="815.58002"
     cy="238.78999"
     r="2.7"
     style="stroke:#ff0000;stroke-width:0.75"
     id="circle318" />
  <circle
     cx="826.87"
     cy="336.94"
     r="2.7"
     style="stroke:#ff0000;stroke-width:0.75"
     id="circle320" />
  <circle
     cx="849.46002"
     cy="160.41"
     r="2.7"
     style="stroke:#999999;stroke-width:0.75;fill:#ff0000"
     id="circle322" />
  <circle
     cx="860.75"
     cy="425.59"
     r="2.7"
     style="stroke:#ff0000;stroke-width:0.75"
     id="circle324" />
  <circle
     cx="872.04999"
     cy="256.63"
     r="2.7"
     style="stroke:#ff0000;stroke-width:0.75"
     id="circle326" />
  <circle
     cx="905.92999"
     cy="472.42999"
     r="2.7"
     style="stroke:#ff0000;stroke-width:0.75"
     id="circle328" />
  <circle
     cx="917.21997"
     cy="363.20999"
     r="2.7"
     style="stroke:#ff0000;stroke-width:0.75"
     id="circle330" />
  <circle
     cx="928.52002"
     cy="152.91"
     r="2.7"
     style="stroke:#ff0000;stroke-width:0.75"
     id="circle332" />
  <circle
     cx="939.81"
     cy="223.49001"
     r="2.7"
     style="stroke:#ff0000;stroke-width:0.75"
     id="circle334" />
  <defs
     id="defs341" />
  <text
     x="770.40002"
     y="35.959999"
     text-anchor="middle"
     style="font-weight:bold;font-size:18px;font-family:Arial"
     textLength="259.39999"
     lengthAdjust="spacingAndGlyphs"
     id="text343">Learning Rates Across Blocks</text>
  <text
     x="770.40002"
     y="557.28003"
     text-anchor="middle"
     style="font-size:20.4px;font-family:Arial"
     textLength="192.64"
     lengthAdjust="spacingAndGlyphs"
     id="text345">Block (12 or 24 trials)</text>
  <text
     transform="rotate(-90,393.63,-112.83)"
     text-anchor="middle"
     style="font-size:20.4px;font-family:Arial"
     textLength="227.83"
     lengthAdjust="spacingAndGlyphs"
     id="text347">Amount changed per trial</text>
  <polygon
     points="580.09,75.47 577.27,75.47 577.27,406.22 580.09,406.22 "
     style="fill:#ff0000;fill-opacity:0.2;stroke:none;stroke-width:0.75"
     id="polygon351" />
  <polygon
     points="591.39,128.84 588.56,128.84 588.56,486.13 591.39,486.13 "
     style="fill:#999999;fill-opacity:0.2;stroke:none;stroke-width:0.75"
     id="polygon353" />
  <polygon
     points="613.98,75.47 611.15,75.47 611.15,471.81 613.98,471.81 "
     style="fill:#ff0000;fill-opacity:0.2;stroke:none;stroke-width:0.75"
     id="polygon355" />
  <polygon
     points="625.27,76.5 622.45,76.5 622.45,321.3 625.27,321.3 "
     style="fill:#ff0000;fill-opacity:0.2;stroke:none;stroke-width:0.75"
     id="polygon357" />
  <polygon
     points="647.86,214.57 645.04,214.57 645.04,403.17 647.86,403.17 "
     style="fill:#ff0000;fill-opacity:0.2;stroke:none;stroke-width:0.75"
     id="polygon359" />
  <polygon
     points="670.45,124.56 667.62,124.56 667.62,298.05 670.45,298.05 "
     style="fill:#ff0000;fill-opacity:0.2;stroke:none;stroke-width:0.75"
     id="polygon361" />
  <polygon
     points="704.33,75.47 701.51,75.47 701.51,380.97 704.33,380.97 "
     style="fill:#ff0000;fill-opacity:0.2;stroke:none;stroke-width:0.75"
     id="polygon363" />
  <polygon
     points="726.92,75.47 724.09,75.47 724.09,311.79 726.92,311.79 "
     style="fill:#ff0000;fill-opacity:0.2;stroke:none;stroke-width:0.75"
     id="polygon365" />
  <polygon
     points="760.8,75.47 757.98,75.47 757.98,449.42 760.8,449.42 "
     style="fill:#ff0000;fill-opacity:0.2;stroke:none;stroke-width:0.75"
     id="polygon367" />
  <polygon
     points="772.09,75.47 769.27,75.47 769.27,334.47 772.09,334.47 "
     style="fill:#ff0000;fill-opacity:0.2;stroke:none;stroke-width:0.75"
     id="polygon369" />
  <polygon
     points="794.68,75.47 791.86,75.47 791.86,245.83 794.68,245.83 "
     style="fill:#ff0000;fill-opacity:0.2;stroke:none;stroke-width:0.75"
     id="polygon371" />
  <polygon
     points="817.27,75.47 814.45,75.47 814.45,352.7 817.27,352.7 "
     style="fill:#ff0000;fill-opacity:0.2;stroke:none;stroke-width:0.75"
     id="polygon373" />
  <polygon
     points="828.56,75.47 825.74,75.47 825.74,400.76 828.56,400.76 "
     style="fill:#ff0000;fill-opacity:0.2;stroke:none;stroke-width:0.75"
     id="polygon375" />
  <polygon
     points="851.15,75.47 848.33,75.47 848.33,263.63 851.15,263.63 "
     style="fill:#999999;fill-opacity:0.2;stroke:none;stroke-width:0.75"
     id="polygon377" />
  <polygon
     points="862.45,75.47 859.62,75.47 859.62,482.19 862.45,482.19 "
     style="fill:#ff0000;fill-opacity:0.2;stroke:none;stroke-width:0.75"
     id="polygon379" />
  <polygon
     points="873.74,118.35 870.92,118.35 870.92,418.98 873.74,418.98 "
     style="fill:#ff0000;fill-opacity:0.2;stroke:none;stroke-width:0.75"
     id="polygon381" />
  <polygon
     points="907.62,75.47 904.8,75.47 904.8,486.13 907.62,486.13 "
     style="fill:#ff0000;fill-opacity:0.2;stroke:none;stroke-width:0.75"
     id="polygon383" />
  <polygon
     points="918.92,217.81 916.09,217.81 916.09,486.13 918.92,486.13 "
     style="fill:#ff0000;fill-opacity:0.2;stroke:none;stroke-width:0.75"
     id="polygon385" />
  <polygon
     points="930.21,75.47 927.39,75.47 927.39,319.31 930.21,319.31 "
     style="fill:#ff0000;fill-opacity:0.2;stroke:none;stroke-width:0.75"
     id="polygon387" />
  <polygon
     points="941.51,75.47 938.68,75.47 938.68,314.76 941.51,314.76 "
     style="fill:#ff0000;fill-opacity:0.2;stroke:none;stroke-width:0.75"
     id="polygon389" />
  <g
     clip-path="url(#cpMC4wMHwxMDA4LjAwfDAuMDB8NTc2LjAw)"
     id="g457">
    <line
       x1="578.40"
       y1="502.56"
       x2="973.69"
       y2="502.56"
       style="stroke-width: 0.75;"
       id="line393" />
    <line
       x1="578.40"
       y1="502.56"
       x2="578.40"
       y2="509.76"
       style="stroke-width: 0.75;"
       id="line395" />
    <line
       x1="612.28"
       y1="502.56"
       x2="612.28"
       y2="509.76"
       style="stroke-width: 0.75;"
       id="line397" />
    <line
       x1="657.46"
       y1="502.56"
       x2="657.46"
       y2="509.76"
       style="stroke-width: 0.75;"
       id="line399" />
    <line
       x1="702.64"
       y1="502.56"
       x2="702.64"
       y2="509.76"
       style="stroke-width: 0.75;"
       id="line401" />
    <line
       x1="747.81"
       y1="502.56"
       x2="747.81"
       y2="509.76"
       style="stroke-width: 0.75;"
       id="line403" />
    <line
       x1="792.99"
       y1="502.56"
       x2="792.99"
       y2="509.76"
       style="stroke-width: 0.75;"
       id="line405" />
    <line
       x1="838.16"
       y1="502.56"
       x2="838.16"
       y2="509.76"
       style="stroke-width: 0.75;"
       id="line407" />
    <line
       x1="883.34"
       y1="502.56"
       x2="883.34"
       y2="509.76"
       style="stroke-width: 0.75;"
       id="line409" />
    <line
       x1="928.52"
       y1="502.56"
       x2="928.52"
       y2="509.76"
       style="stroke-width: 0.75;"
       id="line411" />
    <line
       x1="973.69"
       y1="502.56"
       x2="973.69"
       y2="509.76"
       style="stroke-width: 0.75;"
       id="line413" />
    <text
       x="578.40"
       y="528.48"
       text-anchor="middle"
       style="font-size: 18.00px; font-family: &quot;Arial&quot;;"
       textLength="10.01px"
       lengthAdjust="spacingAndGlyphs"
       id="text415">1</text>
    <text
       x="612.28"
       y="528.48"
       text-anchor="middle"
       style="font-size: 18.00px; font-family: &quot;Arial&quot;;"
       textLength="10.01px"
       lengthAdjust="spacingAndGlyphs"
       id="text417">4</text>
    <text
       x="657.46"
       y="528.48"
       text-anchor="middle"
       style="font-size: 18.00px; font-family: &quot;Arial&quot;;"
       textLength="10.01px"
       lengthAdjust="spacingAndGlyphs"
       id="text419">8</text>
    <text
       x="702.64"
       y="528.48"
       text-anchor="middle"
       style="font-size: 18.00px; font-family: &quot;Arial&quot;;"
       textLength="20.02px"
       lengthAdjust="spacingAndGlyphs"
       id="text421">12</text>
    <text
       x="747.81"
       y="528.48"
       text-anchor="middle"
       style="font-size: 18.00px; font-family: &quot;Arial&quot;;"
       textLength="20.02px"
       lengthAdjust="spacingAndGlyphs"
       id="text423">16</text>
    <text
       x="792.99"
       y="528.48"
       text-anchor="middle"
       style="font-size: 18.00px; font-family: &quot;Arial&quot;;"
       textLength="20.02px"
       lengthAdjust="spacingAndGlyphs"
       id="text425">20</text>
    <text
       x="838.16"
       y="528.48"
       text-anchor="middle"
       style="font-size: 18.00px; font-family: &quot;Arial&quot;;"
       textLength="20.02px"
       lengthAdjust="spacingAndGlyphs"
       id="text427">24</text>
    <text
       x="883.34"
       y="528.48"
       text-anchor="middle"
       style="font-size: 18.00px; font-family: &quot;Arial&quot;;"
       textLength="20.02px"
       lengthAdjust="spacingAndGlyphs"
       id="text429">28</text>
    <text
       x="928.52"
       y="528.48"
       text-anchor="middle"
       style="font-size: 18.00px; font-family: &quot;Arial&quot;;"
       textLength="20.02px"
       lengthAdjust="spacingAndGlyphs"
       id="text431">32</text>
    <text
       x="973.69"
       y="528.48"
       text-anchor="middle"
       style="font-size: 18.00px; font-family: &quot;Arial&quot;;"
       textLength="20.02px"
       lengthAdjust="spacingAndGlyphs"
       id="text433">36</text>
    <line
       x1="563.04"
       y1="486.13"
       x2="563.04"
       y2="75.47"
       style="stroke-width: 0.75;"
       id="line435" />
    <line
       x1="563.04"
       y1="486.13"
       x2="555.84"
       y2="486.13"
       style="stroke-width: 0.75;"
       id="line437" />
    <line
       x1="563.04"
       y1="383.47"
       x2="555.84"
       y2="383.47"
       style="stroke-width: 0.75;"
       id="line439" />
    <line
       x1="563.04"
       y1="280.80"
       x2="555.84"
       y2="280.80"
       style="stroke-width: 0.75;"
       id="line441" />
    <line
       x1="563.04"
       y1="178.13"
       x2="555.84"
       y2="178.13"
       style="stroke-width: 0.75;"
       id="line443" />
    <line
       x1="563.04"
       y1="75.47"
       x2="555.84"
       y2="75.47"
       style="stroke-width: 0.75;"
       id="line445" />
    <text
       x="548.64"
       y="492.58"
       text-anchor="end"
       style="font-size: 18.00px; font-family: &quot;Arial&quot;;"
       textLength="35.03px"
       lengthAdjust="spacingAndGlyphs"
       id="text447">0.00</text>
    <text
       x="548.64"
       y="389.91"
       text-anchor="end"
       style="font-size: 18.00px; font-family: &quot;Arial&quot;;"
       textLength="35.03px"
       lengthAdjust="spacingAndGlyphs"
       id="text449">0.25</text>
    <text
       x="548.64"
       y="287.24"
       text-anchor="end"
       style="font-size: 18.00px; font-family: &quot;Arial&quot;;"
       textLength="35.03px"
       lengthAdjust="spacingAndGlyphs"
       id="text451">0.50</text>
    <text
       x="548.64"
       y="184.58"
       text-anchor="end"
       style="font-size: 18.00px; font-family: &quot;Arial&quot;;"
       textLength="35.03px"
       lengthAdjust="spacingAndGlyphs"
       id="text453">0.75</text>
    <text
       x="548.64"
       y="81.91"
       text-anchor="end"
       style="font-size: 18.00px; font-family: &quot;Arial&quot;;"
       textLength="35.03px"
       lengthAdjust="spacingAndGlyphs"
       id="text455">1.00</text>
  </g>
  <line
     x1="563.03998"
     y1="247.66"
     x2="977.76001"
     y2="298.39999"
     style="stroke:#ff0000;stroke-width:0.75;stroke-dasharray:4, 4"
     id="line459" />
  <circle
     cx="578.40002"
     cy="142.25999"
     r="2.7"
     style="stroke:#0000ff;stroke-width:0.75"
     id="circle461" />
  <circle
     cx="589.69"
     cy="75.470001"
     r="2.7"
     style="stroke:#999999;stroke-width:0.75;fill:#0000ff"
     id="circle463" />
  <circle
     cx="612.28003"
     cy="258.92999"
     r="2.7"
     style="stroke:#0000ff;stroke-width:0.75"
     id="circle465" />
  <circle
     cx="623.58002"
     cy="257.67001"
     r="2.7"
     style="stroke:#0000ff;stroke-width:0.75"
     id="circle467" />
  <circle
     cx="646.15997"
     cy="371.51001"
     r="2.7"
     style="stroke:#0000ff;stroke-width:0.75"
     id="circle469" />
  <circle
     cx="668.75"
     cy="319.76999"
     r="2.7"
     style="stroke:#0000ff;stroke-width:0.75"
     id="circle471" />
  <circle
     cx="702.64001"
     cy="330.79999"
     r="2.7"
     style="stroke:#0000ff;stroke-width:0.75"
     id="circle473" />
  <circle
     cx="725.21997"
     cy="337.03"
     r="2.7"
     style="stroke:#0000ff;stroke-width:0.75"
     id="circle475" />
  <circle
     cx="759.10999"
     cy="352.57001"
     r="2.7"
     style="stroke:#0000ff;stroke-width:0.75"
     id="circle477" />
  <circle
     cx="770.40002"
     cy="313.95999"
     r="2.7"
     style="stroke:#0000ff;stroke-width:0.75"
     id="circle479" />
  <circle
     cx="792.98999"
     cy="337.23001"
     r="2.7"
     style="stroke:#0000ff;stroke-width:0.75"
     id="circle481" />
  <circle
     cx="815.58002"
     cy="349.19"
     r="2.7"
     style="stroke:#0000ff;stroke-width:0.75"
     id="circle483" />
  <circle
     cx="826.87"
     cy="367.82001"
     r="2.7"
     style="stroke:#0000ff;stroke-width:0.75"
     id="circle485" />
  <circle
     cx="849.46002"
     cy="290.48999"
     r="2.7"
     style="stroke:#999999;stroke-width:0.75;fill:#0000ff"
     id="circle487" />
  <circle
     cx="860.75"
     cy="272.04999"
     r="2.7"
     style="stroke:#0000ff;stroke-width:0.75"
     id="circle489" />
  <circle
     cx="872.04999"
     cy="253.13"
     r="2.7"
     style="stroke:#0000ff;stroke-width:0.75"
     id="circle491" />
  <circle
     cx="905.92999"
     cy="333.17999"
     r="2.7"
     style="stroke:#0000ff;stroke-width:0.75"
     id="circle493" />
  <circle
     cx="917.21997"
     cy="329.76001"
     r="2.7"
     style="stroke:#0000ff;stroke-width:0.75"
     id="circle495" />
  <circle
     cx="928.52002"
     cy="284.35001"
     r="2.7"
     style="stroke:#0000ff;stroke-width:0.75"
     id="circle497" />
  <circle
     cx="939.81"
     cy="300.06"
     r="2.7"
     style="stroke:#0000ff;stroke-width:0.75"
     id="circle499" />
  <polygon
     points="580.09,75.47 577.27,75.47 577.27,408.14 580.09,408.14 "
     style="fill:#0000ff;fill-opacity:0.2;stroke:none;stroke-width:0.75"
     id="polygon501" />
  <polygon
     points="591.39,75.47 588.56,75.47 588.56,439.26 591.39,439.26 "
     style="fill:#999999;fill-opacity:0.2;stroke:none;stroke-width:0.75"
     id="polygon503" />
  <polygon
     points="613.98,126.39 611.15,126.39 611.15,327.12 613.98,327.12 "
     style="fill:#0000ff;fill-opacity:0.2;stroke:none;stroke-width:0.75"
     id="polygon505" />
  <polygon
     points="625.27,155.65 622.45,155.65 622.45,351.34 625.27,351.34 "
     style="fill:#0000ff;fill-opacity:0.2;stroke:none;stroke-width:0.75"
     id="polygon507" />
  <polygon
     points="647.86,322.38 645.04,322.38 645.04,410.53 647.86,410.53 "
     style="fill:#0000ff;fill-opacity:0.2;stroke:none;stroke-width:0.75"
     id="polygon509" />
  <polygon
     points="670.45,109.15 667.62,109.15 667.62,411.85 670.45,411.85 "
     style="fill:#0000ff;fill-opacity:0.2;stroke:none;stroke-width:0.75"
     id="polygon511" />
  <polygon
     points="704.33,285.97 701.51,285.97 701.51,373.11 704.33,373.11 "
     style="fill:#0000ff;fill-opacity:0.2;stroke:none;stroke-width:0.75"
     id="polygon513" />
  <polygon
     points="726.92,233.94 724.09,233.94 724.09,395.45 726.92,395.45 "
     style="fill:#0000ff;fill-opacity:0.2;stroke:none;stroke-width:0.75"
     id="polygon515" />
  <polygon
     points="760.8,318.82 757.98,318.82 757.98,379.04 760.8,379.04 "
     style="fill:#0000ff;fill-opacity:0.2;stroke:none;stroke-width:0.75"
     id="polygon517" />
  <polygon
     points="772.09,256.68 769.27,256.68 769.27,357.53 772.09,357.53 "
     style="fill:#0000ff;fill-opacity:0.2;stroke:none;stroke-width:0.75"
     id="polygon519" />
  <polygon
     points="794.68,295.5 791.86,295.5 791.86,371.19 794.68,371.19 "
     style="fill:#0000ff;fill-opacity:0.2;stroke:none;stroke-width:0.75"
     id="polygon521" />
  <polygon
     points="817.27,318.06 814.45,318.06 814.45,370.84 817.27,370.84 "
     style="fill:#0000ff;fill-opacity:0.2;stroke:none;stroke-width:0.75"
     id="polygon523" />
  <polygon
     points="828.56,312.75 825.74,312.75 825.74,425.35 828.56,425.35 "
     style="fill:#0000ff;fill-opacity:0.2;stroke:none;stroke-width:0.75"
     id="polygon525" />
  <polygon
     points="851.15,229.69 848.33,229.69 848.33,336.13 851.15,336.13 "
     style="fill:#999999;fill-opacity:0.2;stroke:none;stroke-width:0.75"
     id="polygon527" />
  <polygon
     points="862.45,198.01 859.62,198.01 859.62,318.33 862.45,318.33 "
     style="fill:#0000ff;fill-opacity:0.2;stroke:none;stroke-width:0.75"
     id="polygon529" />
  <polygon
     points="873.74,159.68 870.92,159.68 870.92,313.35 873.74,313.35 "
     style="fill:#0000ff;fill-opacity:0.2;stroke:none;stroke-width:0.75"
     id="polygon531" />
  <polygon
     points="907.62,292.5 904.8,292.5 904.8,360.25 907.62,360.25 "
     style="fill:#0000ff;fill-opacity:0.2;stroke:none;stroke-width:0.75"
     id="polygon533" />
  <polygon
     points="918.92,293.83 916.09,293.83 916.09,361.19 918.92,361.19 "
     style="fill:#0000ff;fill-opacity:0.2;stroke:none;stroke-width:0.75"
     id="polygon535" />
  <polygon
     points="930.21,184.72 927.39,184.72 927.39,379.09 930.21,379.09 "
     style="fill:#0000ff;fill-opacity:0.2;stroke:none;stroke-width:0.75"
     id="polygon537" />
  <polygon
     points="941.51,238.62 938.68,238.62 938.68,339.74 941.51,339.74 "
     style="fill:#0000ff;fill-opacity:0.2;stroke:none;stroke-width:0.75"
     id="polygon539" />
  <line
     x1="563.03998"
     y1="276.29999"
     x2="977.76001"
     y2="339.10999"
     style="stroke:#0000ff;stroke-width:0.75;stroke-dasharray:4, 4"
     id="line541" />
  <g
     clip-path="url(#cpMC4wMHwxMDA4LjAwfDAuMDB8NTc2LjAw)"
     id="g547">
    <text
       x="563.04"
       y="58.94"
       style="font-size: 24.00px; font-family: &quot;Arial&quot;;"
       textLength="16.01px"
       lengthAdjust="spacingAndGlyphs"
       id="text545">B</text>
  </g>
</svg>
